<svg id="_x33_0" enable-background="new 0 0 64 64" height="512" viewBox="0 0 64 64" width="512" xmlns="http://www.w3.org/2000/svg"><g><g><g><path d="m34.11 49.66-2.11 6.34-2.67-8-.14-.44 2.81-6.56 2 4.67v3.33c0 .23.04.45.11.66z" fill="#fcd770"/></g><g><path d="m34.11 49.66c.28.78 1.02 1.34 1.89 1.34v2c0 .11.01.22.03.32h-.01l-4.02 2.68z" fill="#ff826e"/></g><g><path d="m27 38 5 3-2.81 6.56-3.13-9.37z" fill="#fc6e51"/></g><g><path d="m34 45.67-2-4.67 4-2.4v4.4c-1.1 0-2 .9-2 2z" fill="#fc6e51"/></g><g><path d="m44.93 45.14-1.33-1.48c-.38-.42-.92-.66-1.49-.66h-2.11v-4.67l3.95.44c1.36.15 2.67.54 3.89 1.15 1.34.67 2.52 1.58 3.49 2.68s1.73 2.38 2.23 3.78l3.14 8.79c.2.55.3 1.13.3 1.72 0 1.41-.57 2.69-1.5 3.61-.92.93-2.2 1.5-3.61 1.5h-.08c-1.75 0-3.38-.89-4.32-2.37l-2.49-3.91v-.01l-3-4.71z" fill="#e6e9ed"/></g><g><path d="m42 51 3 4.71v.01 6.28h-13v-6l4.02-2.68h.01c.15.95.98 1.68 1.97 1.68.55 0 1.05-.22 1.41-.59.37-.36.59-.86.59-1.41v-2z" fill="#e6e9ed"/></g><g><path d="m19 62h-6v-13.86c0-2.03.69-4.01 1.96-5.59 1.32-1.65 3.17-2.78 5.24-3.19l.86-.17 2.94 8.81h3l-1 4 6 4v6z" fill="#e6e9ed"/></g><g><path d="m29.33 48 2.67 8-6-4 1-4z" fill="#ccd1d9"/></g><g><path d="m29.19 47.56.14.44h-2.33-3l-2.94-8.81 5-1z" fill="#ccd1d9"/></g><g><path d="m26.15 14.51-1.72 1.03c-1.51.91-2.43 2.53-2.43 4.29v4.17c0 2.76 1.12 5.26 2.93 7.07.75.75 1.61 1.38 2.57 1.86-.68 1.24-1.99 2.07-3.5 2.07-1.87 0-3.42-1.28-3.86-3.01-.05 0-.09.01-.14.01-2.21 0-4-1.79-4-4 0-1.21.55-2.28 1.39-3.01-2.03-1.23-3.39-3.45-3.39-5.99 0-2.11.94-4 2.42-5.28-.27-.86-.42-1.77-.42-2.72 0-4.97 4.03-9 9-9 2.95 0 5.56 1.42 7.2 3.61 1.34-1.01 3-1.61 4.8-1.61 4.42 0 8 3.58 8 8 0 .1-.01.19-.01.29 2.89.86 5.01 3.53 5.01 6.71 0 1.93-.79 3.68-2.05 4.94-.54-5.02-4.79-8.94-9.95-8.94-2.25 0-4.33.75-6 2h-2.51c-.97 0-1.84-.39-2.47-1.02-.4-.4-.71-.9-.87-1.47z" fill="#656d78"/></g><g><path d="m38 55c-.99 0-1.82-.73-1.97-1.68-.02-.1-.03-.21-.03-.32v-2h4v2c0 .55-.22 1.05-.59 1.41-.36.37-.86.59-1.41.59z" fill="#b27946"/></g><g><path d="m40 38.33v4.67h-4v-4.4-3.8c.64.13 1.31.2 2 .2s1.36-.07 2-.2z" fill="#b27946"/></g><g><path d="m36 43h4 2.11c.57 0 1.11.24 1.49.66l1.33 1.48-2.93 5.86h-2-4c-.87 0-1.61-.56-1.89-1.34-.07-.21-.11-.43-.11-.66v-3.33-.67c0-1.1.9-2 2-2z" fill="#f0d0b4"/></g><g><path d="m36 34.8v3.8l-4 2.4-5-3 .97-4.85 4.03.85c.49 0 .96-.03 1.43-.1v-.01c.8.42 1.66.72 2.57.91z" fill="#f0d0b4"/></g><g><circle cx="38" cy="25" fill="#69d6f4" r="10"/></g><g><path d="m28 25c0 3.87 2.21 7.23 5.43 8.89v.01c-.47.07-.94.1-1.43.1l-4.03-.85c-.16-.07-.32-.14-.47-.22-.96-.48-1.82-1.11-2.57-1.86-1.81-1.81-2.93-4.31-2.93-7.07v-4.17c0-1.76.92-3.38 2.43-4.29l1.72-1.03c.16.57.47 1.07.87 1.47.63.63 1.5 1.02 2.47 1.02h2.51c-2.43 1.83-4 4.73-4 8z" fill="#f0d0b4"/></g><g><path d="m38 19c-3.31 0-6 2.69-6 6s2.69 6 6 6c-3.75 0-7.25-1.87-9.33-4.99l-.67-1.01.67-1.01c1.04-1.56 2.43-2.81 4.04-3.67 1.6-.85 3.41-1.32 5.29-1.32z" fill="#ccd1d9"/></g><g><path d="m47.33 23.99.67 1.01-.67 1.01c-1.04 1.56-2.43 2.81-4.04 3.67-1.6.85-3.41 1.32-5.29 1.32 3.31 0 6-2.69 6-6s-2.69-6-6-6c3.75 0 7.25 1.87 9.33 4.99z" fill="#ccd1d9"/></g><g><path d="m38 19c3.31 0 6 2.69 6 6s-2.69 6-6 6-6-2.69-6-6 2.69-6 6-6z" fill="#3bafda"/></g><g><circle cx="38" cy="25" fill="#4fc1e9" r="2"/></g></g><g><path d="m38 22c-1.654 0-3 1.346-3 3s1.346 3 3 3 3-1.346 3-3-1.346-3-3-3zm0 4c-.551 0-1-.448-1-1s.449-1 1-1 1 .448 1 1-.449 1-1 1z"/><path d="m57.644 54.83-3.14-8.791c-1.094-3.064-3.3-5.555-6.213-7.012-1.331-.665-2.755-1.085-4.231-1.249l-3.06-.34v-1.864c4.61-1.31 8-5.549 8-10.574 0-.234-.021-.463-.035-.693 1.311-1.465 2.035-3.329 2.035-5.307 0-3.262-2.025-6.21-5.01-7.417-.218-4.77-4.167-8.583-8.99-8.583-1.64 0-3.216.439-4.609 1.277-1.894-2.093-4.539-3.277-7.391-3.277-5.514 0-10 4.486-10 10 0 .813.098 1.617.292 2.402-1.464 1.493-2.292 3.499-2.292 5.598 0 2.422 1.066 4.649 2.902 6.159-.582.83-.902 1.82-.902 2.841 0 2.56 1.933 4.676 4.416 4.966.775 1.819 2.565 3.034 4.584 3.034.9 0 1.765-.244 2.517-.682l-.367 1.832-6.148 1.229c-2.292.458-4.36 1.717-5.821 3.542-1.406 1.76-2.181 3.968-2.181 6.221v14.858h34v-3.851l.649 1.02c1.129 1.772 3.058 2.831 5.237 2.831 3.371 0 6.114-2.743 6.114-6.114 0-.703-.12-1.396-.356-2.056zm-16.262-4.83h-5.382c-.551 0-1-.448-1-1v-4c0-.552.449-1 1-1h6.109c.283 0 .554.12.743.331l.877.974zm-11.895-32h.035c-1.575 1.903-2.522 4.343-2.522 7 0 3.063 1.261 5.836 3.289 7.832-4.146-.802-7.289-4.455-7.289-8.832v-4.169c0-1.397.744-2.711 1.942-3.43l.778-.467c.8 1.239 2.186 2.066 3.767 2.066zm-.285 7 .302-.453c.567-.851 1.26-1.585 2.028-2.216-.341.823-.532 1.724-.532 2.669s.191 1.846.532 2.669c-.768-.631-1.46-1.365-2.028-2.216zm3.798 0c0-2.757 2.243-5 5-5s5 2.243 5 5-2.243 5-5 5-5-2.243-5-5zm11.468-2.669c.768.631 1.46 1.365 2.028 2.216l.302.453-.302.453c-.567.851-1.26 1.585-2.028 2.216.341-.823.532-1.724.532-2.669s-.191-1.846-.532-2.669zm-5.665-4.281c-.264-.031-.531-.05-.803-.05s-.539.019-.803.05c-2.721.179-5.272 1.239-7.278 3.015 1.464-2.994 4.531-5.065 8.081-5.065s6.617 2.071 8.081 5.064c-2.006-1.775-4.557-2.836-7.278-3.014zm-6.803 16.95c.418 0 .84-.042 1.259-.089.557.267 1.137.491 1.741.663v2.46l-3 1.8-3.881-2.329.601-3.005c1.036.324 2.138.5 3.28.5zm-1.263 6.408-1.433 3.343-1.751-5.253zm1.263 2.13 1 2.334v3.128c0 .216.025.427.069.63l-1.069 3.208-1.744-5.231zm1.89-.667-.627-1.463 1.737-1.042v1.818c-.419.15-.8.38-1.11.687zm-5.944 4.129h-3.225l-2.351-7.054 3.023-.605zm-.165 2h.832l1.517 4.551-2.989-1.993zm6.742 2.595c.152.087.31.161.477.221v.982l-1.129.753zm2.477.405h2v1c0 .552-.449 1-1 1s-1-.448-1-1zm2-10h-2v-6.051c.33.03.662.051 1 .051s.67-.021 1-.051zm-1-8c-3.55 0-6.618-2.071-8.081-5.064 2.007 1.775 4.558 2.836 7.278 3.015.264.03.531.049.803.049s.539-.019.803-.05c2.721-.179 5.272-1.239 7.278-3.015-1.463 2.994-4.531 5.065-8.081 5.065zm-16.894-2.261-.201-.786-.811.034c-.053.002-.106.008-.094.013-1.654 0-3-1.346-3-3 0-.868.372-1.669 1.047-2.254l1.039-.901-1.177-.711c-1.822-1.1-2.909-3.019-2.909-5.134 0-1.734.756-3.386 2.074-4.53l.496-.431-.198-.626c-.247-.781-.372-1.593-.372-2.413 0-4.411 3.589-8 8-8 2.535 0 4.867 1.171 6.397 3.213l.602.803.801-.604c1.224-.924 2.677-1.412 4.2-1.412 3.86 0 7 3.141 7 7l-.042 1.029.744.22c2.53.748 4.298 3.112 4.298 5.751 0 .891-.2 1.749-.569 2.533-1.456-4.37-5.578-7.533-10.431-7.533-2.346 0-4.517.744-6.305 2h-2.208c-1.371 0-2.487-1.116-2.487-2.487 0-1.072.684-2.02 1.7-2.358l.616-.205-.632-1.898-.616.206c-1.835.61-3.068 2.32-3.068 4.255 0 .168.032.328.05.492l-1.136.682c-1.798 1.077-2.914 3.048-2.914 5.144v4.169c0 3.853 1.995 7.244 5.002 9.209-.544.492-1.247.791-2.002.791-1.364 0-2.554-.93-2.894-2.261zm-7.106 16.403c0-1.8.619-3.565 1.743-4.97 1.167-1.458 2.818-2.464 4.65-2.831l2.886 8.659h2.44l-.86 3.441 6.141 4.094v4.465h-11v-10h-2v10h-4zm30 12.858h-11v-4.465l2.611-1.741c.548.728 1.41 1.206 2.389 1.206 1.654 0 3-1.346 3-3v-1h.451l2.549 4.006zm7.808 0c-1.414 0-2.712-.712-3.471-1.905l-5.189-8.154 2.019-4.039 6.09 6.766 1.486-1.338-8.403-9.337c-.568-.631-1.381-.993-2.231-.993h-1.109v-2.549l2.84.316c1.241.138 2.438.491 3.558 1.05 2.448 1.225 4.303 3.318 5.223 5.895l3.14 8.792c.158.443.239.908.239 1.382 0 2.268-1.846 4.114-4.192 4.114z"/></g></g></svg>