<svg height="512" viewBox="0 0 48 56" width="512" xmlns="http://www.w3.org/2000/svg"><g id="Page-1" fill="none" fill-rule="evenodd"><g id="024---Neuter" fill="rgb(0,0,0)" fill-rule="nonzero"><path id="Shape" d="m19.757 36.243 2.831-2.831-4.6-4.6c-3.9985676-1.6287868-7.1712132-4.8014324-8.8-8.8l-.126-.126-.713.713c-1.16715267 1.1708093-1.16715267 3.0651907 0 4.236z"/><path id="Shape" d="m21 23c2.862426-.0003428 5.326003-2.022624 5.884123-4.8301112.5581199-2.8074873-.944659-5.618268-3.5893077-6.7134006-2.6446487-1.0951327-5.6946069-.1696121-7.2846631 2.2105567s-1.2773644 5.5520857.7468478 7.5759551c1.1230441 1.1286441 2.6508169 1.7612853 4.243 1.757z"/><path id="Shape" d="m18.932 27.048c3.2012236 1.2380359 6.7453355 1.259028 9.961.059l8.214-8.214c.590256-1.563815.8927924-3.2214978.893-4.893 0-7.7319865-6.2680135-14-14-14s-14 6.2680135-14 14c-.00247398 1.7333612.3204511 3.451784.952 5.066 1.4262372 3.6598633 4.3204942 6.5548457 7.98 7.982zm-3.589-15.7c2.847449-2.85347447 7.3749245-3.13780867 10.557-.663l3.686-3.685h-1.586c-.5522847 0-1-.44771525-1-1s.4477153-1 1-1h4c.5522847 0 1 .44771525 1 1v4c0 .5522847-.4477153 1-1 1s-1-.4477153-1-1v-1.586l-3.685 3.686c2.6299514 3.3882133 2.119903 8.2476294-1.1562417 11.0159338-3.2761448 2.7683045-8.1525422 2.4603729-11.0544294-.6980578-2.9018872-3.1584308-2.7966031-8.0434066.2386711-11.073876z"/><path id="Shape" d="m14.192 40.394c-1.9539823-1.9492694-5.11701774-1.9492694-7.071 0l-5.657 5.656c-1.94883477 1.9545523-1.94883477 5.1174477 0 7.072l1.414 1.414c1.95455226 1.9488348 5.11744774 1.9488348 7.072 0l9.192-9.193-3.536-3.535zm-.707 7.777-4.242 4.243c-1.01052571 1.0105258-2.48339906 1.405181-3.86380289 1.0353029s-2.45862195-1.4480962-2.82850003-2.8285.02477716-2.8532772 1.03530292-3.8638029l4.243-4.242c1.56951555-1.5158888 4.0643391-1.4942095 5.6072743.0487257s1.5646145 4.0377588.0487257 5.6072743z"/><path id="Rectangle-path" d="m18.318 38.524h5.628v4h-5.628z" transform="matrix(.707 -.707 .707 .707 -22.466 26.812)"/><path id="Shape" d="m30.274 41.099-2.029-2.03-2.831 2.831 2.027 2.026 2.429-2.423z"/><path id="Shape" d="m46.536 46.05-5.657-5.656c-1.9526137-1.9525763-5.1183863-1.9525763-7.071 0l-1.408 1.406-.006.009-1.214 1.211-2.324 2.324 9.192 9.193c1.9545523 1.9488348 5.1174477 1.9488348 7.072 0l1.414-1.414c1.9500524-1.9541164 1.950947-5.1177811.002-7.073zm-2.122 6.364c-.7501514.7501901-1.7675983 1.1716458-2.8285 1.1716458s-2.0783486-.4214557-2.8285-1.1716458l-4.242-4.243c-1.5158888-1.5695155-1.4942095-4.0643391.0487257-5.6072743s4.0377588-1.5646145 5.6072743-.0487257l4.243 4.242c.7501901.7501514 1.1716458 1.7675983 1.1716458 2.8285s-.4214557 2.0783486-1.1716458 2.8285z"/><path id="Shape" d="m25.95 38.536 13.7-13.7c.562719-.5626237.8788593-1.3257625.8788593-2.1215s-.3161403-1.5588763-.8788593-2.1215l-.707-.707-15.82 15.82z"/></g></g></svg>